<?xml version="1.0" encoding="UTF-8"?>
<svg width="20px" height="20px" viewBox="0 0 20 20" version="1.1" xmlns="http://www.w3.org/2000/svg" xmlns:xlink="http://www.w3.org/1999/xlink">
    <!-- Generator: Sketch 45 (43475) - http://www.bohemiancoding.com/sketch -->
    <title>Fill 60</title>
    <desc>Created with Sketch.</desc>
    <defs></defs>
    <g id="UI" stroke="none" stroke-width="1" fill="none" fill-rule="evenodd">
        <g id="Desktop-HD" transform="translate(-159.000000, -953.000000)" fill="#161518">
            <g id="Error-banner-Copy" transform="translate(139.000000, 933.000000)">
                <path d="M34.1444444,20 L25.8555556,20 L20,25.855 L20,34.1444444 L25.8555556,40 L34.1444444,40 L40,34.1444444 L40,25.855 L34.1444444,20 L34.1444444,20 Z M30,35.8888889 C29.2,35.8888889 28.5555556,35.2444444 28.5555556,34.4444444 C28.5555556,33.6444444 29.2,33 30,33 C30.8,33 31.4444444,33.6444444 31.4444444,34.4444444 C31.4444444,35.2444444 30.8,35.8888889 30,35.8888889 L30,35.8888889 Z M28.8888889,24.4444444 L31.1111111,24.4444444 L31.1111111,31.1111111 L28.8888889,31.1111111 L28.8888889,24.4444444 Z" id="Fill-60"></path>
            </g>
        </g>
    </g>
</svg>